<?xml version="1.0" encoding="UTF-8"?>
<svg id="Layer_1" xmlns="http://www.w3.org/2000/svg" viewBox="0 0 382.4 581.54">
  <defs>
    <style>
      .cls-1 {
        fill: #00c9fc;
      }
    </style>
  </defs>
  <path class="cls-1" d="M361.35,547.88c1.22.39,3.79,1.04,6.19,2.07,7.86,3.36,11.99,11.31,10.35,19.63-1.42,7.21-7.54,11.65-16.45,11.65-94.72.09-189.46.16-284.18.21-19.62,0-39.25-.56-58.85.08-15.79.52-22.71-14.67-15.66-27.67,2.44-4.5,9.63-6.41,16.4-10.56-.28-3.85-.66-10.2-1.21-16.53-3.07-35.61,1.05-70.26,14.36-103.56,10.28-25.69,27.38-46.8,46.28-66.5,13.88-14.48,28.36-28.38,42.48-42.64,14.43-14.56,15.71-31.84,3.05-47.92-5.22-6.61-11.66-12.23-17.41-18.43-16.65-17.94-35.02-34.63-49.44-54.22-26.11-35.48-39.46-75.99-38.7-120.59.2-11.99.03-23.99.03-35.77-1.28-1.06-2.03-2.06-3-2.41C2.63,29.99,3.15,18.89,5.54,7.8,6.73,2.27,11.6.69,17,.63,37.74.46,58.46-.05,79.19,0c93.19.25,186.36.67,279.55.98,6.58.03,12.78.38,17.82,5.66,5.1,5.35,7.09,11.35,5.02,18.34-2.03,6.85-6.68,10.85-14.16,11.08-1.02.03-2.03.72-3.05,1.11,1.04,13.93,2.75,27.64,2.94,41.35.62,47.75-16.41,89.45-46.46,125.67-13.74,16.55-30.15,30.87-45.13,46.4-7.55,7.82-15.23,15.66-21.74,24.33-8.49,11.27-7.73,19.16,2.15,31.3,4.9,6.02,10.62,11.43,16.36,16.67,23.78,21.68,46.62,44.12,63.28,72.05,18.45,30.94,28.09,64.35,27.62,100.42-.22,17.27-1.28,34.55-2.01,52.53h-.03ZM48.3,33.44c-2.42,30.43-4.67,59.74,3.79,88.17,8.3,27.88,20.12,53.97,41.8,74.89,17.46,16.84,33.53,35.14,50.07,52.92,24.52,26.4,16.92,66.65-5.33,85.6-15.89,13.53-30.42,28.76-44.81,43.95-19.66,20.73-35.49,44.1-43.15,72.02-6.97,25.44-6.83,51.54-5.01,77.63.39,5.65,1.53,11.25,2.36,17.09h14.8c0-11.78.09-23.09-.04-34.4-.09-7.84,2.58-14.38,8.41-19.58,27.25-24.35,54.46-48.73,81.8-72.98,6.28-5.56,14.25-9.58,22.12-6.38,11.14,4.53,22.36,2.53,33.53,3.66,4.74.47,10.22,2.19,13.74,5.22,25.48,21.98,50.36,44.65,75.83,66.62,8.48,7.3,12.73,15.37,11.85,26.67-.68,8.64-.12,17.38-.03,26.07.03,2.39.3,4.77.47,7.12h24.86c1.23-8.53,2.73-16.54,3.51-24.61,5.35-55.58-9.66-104.37-48.91-144.89-15.2-15.69-29.84-32.01-46.03-46.62-17.71-15.99-20.77-35.18-17.16-57.09,1.7-10.29,6.07-18.9,13.49-26.2,11.44-11.26,22.69-22.7,34.02-34.05,14.5-14.48,29.27-28.69,40.26-46.27,24.12-38.57,31.09-80.49,24.93-125.04-.45-3.18-1.72-6.26-2.65-9.52H48.29h.01ZM99.41,506.95c.69,3.49.96,7.35,2.24,10.83,4.71,12.66,19.32,16.76,28.59,8.26,7.59-6.97,10.42-19.28,6.65-28.83-3.38-8.56-10.05-13.39-18.18-13.17-7.9.22-14.77,5.65-17.5,14.13-.88,2.71-1.17,5.61-1.81,8.79h.01ZM191.79,525.81c10.39.25,19.32-9.83,19.54-22.06.24-12.69-7.69-22.01-18.89-22.2-11.15-.2-19.99,8.73-20.18,20.37-.24,14.17,7.48,23.6,19.53,23.89h0ZM147.48,455.23c-.28,9.5,3.87,17.8,10.87,21.4,5.91,3.04,11.77,2.18,17.08-1.28,9.87-6.44,12.88-23.81,6.06-33.43-4.35-6.12-12.99-9.25-20.08-7.26-7.94,2.23-13.66,10.66-13.93,20.58h.01ZM205.44,436.01v8.3c2.08,1.25,3.72,2.23,5.81,3.47v29.12h9.25v-40.88h-15.06ZM263.34,485.42h-13.32v8.49c1.56.77,3.25,1.63,5.27,2.62v29.21c2.65.45,4.9.83,8.05,1.35v-41.67h0Z"/>
  <path class="cls-1" d="M218.81,172.25c.56-4.84.62-9.8,1.82-14.48,2.04-7.98,10.05-13.5,18.59-13.62,8.01-.1,15.47,4.72,16.8,13.34,1.3,8.36,1.39,17.37-.28,25.61-2.1,10.35-11.48,14.74-23.08,12.91-9.11-1.45-13.36-7.29-13.37-18.36v-5.35c-.16-.01-.31-.04-.47-.05h-.01ZM248.9,170.3h.16v-3.33c-.03-9.06-2.8-12.53-9.96-12.49-6.61.04-10.6,4.6-10.79,12.41-.08,3.32-.16,6.66.05,9.96.39,6.06,4.02,9.07,10.69,9.19,6.16.1,9.28-2.73,9.8-9.11.18-2.2.03-4.43.03-6.65h.01Z"/>
  <path class="cls-1" d="M83.42,96.55c.63-4.14.77-8.43,1.98-12.39,2.96-9.62,11.14-14.56,21.68-13.72,9.07.73,15.47,6.96,16.54,17.04.55,5.24.59,10.75-.31,15.91-2.1,11.9-9.87,17.43-21.85,16.45-10.3-.85-17.03-8.52-17.43-19.88-.04-1.11,0-2.22,0-3.33l-.6-.08h0ZM114.67,92.69c-.24-1.17-.01-4.81-1.68-7.06-2.14-2.91-5.57-6.13-8.85-6.65-5.16-.8-9.79,5.4-10.81,12.46-1.25,8.66,1.22,15.61,6.26,17.55.81.31,1.73.45,2.61.55,8.1,1.05,12.16-3.84,12.46-16.86Z"/>
  <path class="cls-1" d="M219.87,374.29c-1.06,16.83-14.81,28.27-28.19,22.92-6.7-2.67-11.25-7.64-12.37-14.6-.94-5.82-.93-11.97-.2-17.82.97-7.73,7.97-14.82,14.31-15.89,9.48-1.59,17.71,1.94,21.82,10.34,2.28,4.65,3.15,10,4.64,15.03h-.01ZM208.98,372.6c-.41-1.61-.33-5.5-2.22-7.79-2.45-2.98-6.55-6.54-9.78-6.38-3.11.16-7.86,4.27-8.58,7.42-1.26,5.48-1.05,11.9.68,17.24.89,2.75,6.28,5.3,9.86,5.62,5.05.46,8.43-3.34,9.54-8.44.42-1.93.28-3.97.5-7.67Z"/>
  <path class="cls-1" d="M153.72,233.26c.04-13.17,5.43-20.83,16.71-23.87,10.49-2.82,19.84,1.19,22.67,11.65,1.95,7.21,2.24,15.41,1.04,22.81-1.53,9.41-11.8,14.92-22.16,13.76-9.57-1.06-17.84-9.66-18.24-19.02-.08-1.77,0-3.55,0-5.33h-.01ZM186.2,233.71c-.12-9.82-5.11-16.51-12.04-16.15-7.08.38-12.43,7.72-12.06,16.54.41,9.52,5.11,15.07,12.6,14.86,6.76-.2,11.6-6.61,11.49-15.24h.01Z"/>
  <path class="cls-1" d="M160.64,169.05c-1.4,3.6-2.66,9.14-5.53,13.63-4.6,7.2-11.53,10.96-20.5,9.25-7.38-1.4-14.08-8.96-15.74-17.2-1.85-9.11-1.52-17.68,5.18-24.98,5.66-6.16,12.43-9.2,20.87-7.16,8.39,2.03,12.23,8.19,14.08,15.98.66,2.79.92,5.68,1.65,10.46h0ZM151.01,168.06c.09-10.18-3.84-16.29-9.86-17.3-5.57-.93-11.1,3.87-13.49,11.36-2.18,6.85-.9,13.15,4.59,17.38,2.62,2.03,7.67,2.98,10.76,1.91,6.8-2.32,7.84-8.87,8-13.36Z"/>
  <path class="cls-1" d="M183.31,190.91v-37.6c-2.35-1.15-4.29-2.11-6.53-3.21v-6.79h15.35v45.78c-2.46.51-5.02,1.04-8.81,1.82h-.01Z"/>
  <path class="cls-1" d="M250.51,117.71c-2.86.14-5.31.26-8.32.41v-35.43c-2.18-.87-3.96-1.59-6.17-2.46-.13-1.94-.28-4.09-.47-6.97h14.98v44.44h-.01Z"/>
  <path class="cls-1" d="M288.65,73.23v42.95c-3.05.39-5.69.73-10.28,1.32v-44.27s10.28,0,10.28,0Z"/>
  <path class="cls-1" d="M149.18,72.16h9.49c-.31,15.09.98,29.77-.9,44.56h-8.58v-44.56Z"/>
  <path class="cls-1" d="M214.55,209.22h9.2v33.23h-9.2v-33.23Z"/>
  <path class="cls-1" d="M285.94,175c-3.7-.17-5.99-.28-8.7-.39v-31.44h8.7v31.84Z"/>
  <path class="cls-1" d="M204.53,323.85h-7.6v-33.03h7.6v33.03Z"/>
  <path class="cls-1" d="M128.28,506.98c-.34,1.95-.05,4.47-1.18,5.77-2.4,2.78-5.6,6.84-8.35,6.76-2.7-.08-6.11-4.26-7.63-7.41-1.3-2.69-.72-6.51-.29-9.75.6-4.51,2.95-8.24,7.94-8.52,5.12-.29,7.27,3.67,8.74,7.81.58,1.64.51,3.5.75,5.32h.01Z"/>
  <path class="cls-1" d="M182.47,503.07c.12-6.61,4.09-11.1,9.8-11.05,5.49.04,9.33,4.82,9.23,11.49-.1,6.92-4.51,12.44-9.67,12.15-5.19-.3-9.46-6.06-9.34-12.6h-.01Z"/>
  <path class="cls-1" d="M157.39,456.41c-.1-6.99,2.96-11.17,8.39-11.39,5.54-.24,9.4,4,9.5,10.42.1,6.61-3.76,11.81-8.96,12.06-4.98.24-8.83-4.55-8.94-11.08h.01Z"/>
  <path class="cls-1" d="M182.1,95.27c.56-4.84.62-9.8,1.82-14.48,2.04-7.98,10.05-13.5,18.59-13.62,8.01-.1,15.47,4.72,16.8,13.34,1.3,8.36,1.39,17.37-.28,25.61-2.1,10.35-11.48,14.74-23.08,12.91-9.11-1.45-13.36-7.29-13.37-18.36v-5.35c-.16-.01-.31-.04-.47-.05h-.01ZM212.19,93.31h.16v-3.33c-.03-9.06-2.8-12.53-9.96-12.49-6.61.04-10.6,4.6-10.79,12.41-.08,3.32-.16,6.66.05,9.96.39,6.06,4.02,9.07,10.69,9.19,6.16.1,9.28-2.73,9.8-9.11.18-2.2.03-4.43.03-6.65h.01Z"/>
</svg>